<?xml version="1.0" standalone="no"?>
<!DOCTYPE svg PUBLIC "-//W3C//DTD SVG 1.1//EN" "http://www.w3.org/Graphics/SVG/1.1/DTD/svg11.dtd" >
<svg xmlns="http://www.w3.org/2000/svg">
<metadata></metadata>
<defs>
<font id="disco_duck_expitalicexpitalic" horiz-adv-x="1792" >
<font-face units-per-em="2048" ascent="1638" descent="-410" />
<missing-glyph horiz-adv-x="794" />
<glyph horiz-adv-x="0" />
<glyph unicode="&#xd;" horiz-adv-x="1024" />
<glyph unicode=" "  horiz-adv-x="794" />
<glyph unicode="&#x09;" horiz-adv-x="794" />
<glyph unicode="&#xa0;" horiz-adv-x="794" />
<glyph unicode="!" horiz-adv-x="768" d="M73 131q9 -37 33.5 -66.5t63.5 -47t86 -17.5q49 0 102.5 17.5t100.5 47t81.5 66.5t49.5 74q14 39 7 75.5t-31.5 65.5t-63.5 46.5t-88 17.5q-47 0 -99.5 -17.5t-100.5 -46.5t-85 -65.5t-51 -75.5q-14 -37 -5 -74zM236 614h512l235 615h-512z" />
<glyph unicode="&#x22;" horiz-adv-x="1536" d="M315 819h512l78 205q14 39 7 76t-31.5 65.5t-64.5 46t-89 17.5q-47 0 -99.5 -17.5t-99.5 -46t-83.5 -65.5t-51.5 -76zM1083 819h512l78 205q14 39 6 76t-33.5 65.5t-64.5 46t-86 17.5q-49 0 -101.5 -17.5t-99.5 -46t-82.5 -65.5t-50.5 -76z" />
<glyph unicode="#" horiz-adv-x="1536" d="M197 510h256l-41 -102h256l41 102h256l-41 -102h256l41 102h256l77 205h-256l78 205h256l80 204h-256l39 103h-256l-39 -103h-256l39 103h-256l-39 -103h-256l-80 -204h256l-78 -205h-256z" />
<glyph unicode="$" d="M0 0h512l-78 -205h512l78 205q119 0 225.5 27.5t192.5 81t150.5 129t101.5 172.5q39 104 31.5 176.5t-55.5 119t-133 71t-202 34.5l4 8h512l156 410h-512l80 205h-512l-80 -205q-121 0 -226.5 -27.5t-191.5 -81t-149.5 -129.5t-100.5 -172q-25 -61 -10.5 -121.5 t63 -111.5t127 -91t183.5 -61l-8 -24h-512z" />
<glyph unicode="%" horiz-adv-x="2277" d="M335.5 801.5q6.5 -56.5 42.5 -97t97.5 -63.5t145.5 -23q82 0 160.5 23t146 63.5t118.5 97t78 124.5q25 68 18 124t-42 97t-97.5 63.5t-146.5 22.5t-164 -23.5t-146.5 -64.5t-115.5 -97.5t-74 -121.5q-27 -68 -20.5 -124.5zM541 0h473l983 1229h-512zM1352.5 183 q7.5 -56 42.5 -97t97 -63.5t146 -22.5q82 0 161 22.5t145.5 63.5t117.5 97t78 124q25 68 18.5 124t-42 97t-97 63.5t-145.5 22.5t-164 -23.5t-146.5 -64.5t-116.5 -97t-75 -122q-27 -68 -19.5 -124z" />
<glyph unicode="&#x26;" d="M119 307q-121 -307 649 -307h768l-426 616q193 0 327 18.5t225 57.5t144.5 95.5t83.5 134.5q117 307 -651 307t-885 -307q-29 -76 -28 -134q0 -55 49 -93t155.5 -57.5t288.5 -21.5q-184 -2 -306 -23.5t-201 -60t-123 -95t-70 -130.5z" />
<glyph unicode="'" horiz-adv-x="768" d="M315 819h512l78 205q14 39 7 76t-31.5 65.5t-64.5 46t-89 17.5q-47 0 -99.5 -17.5t-99.5 -46t-83.5 -65.5t-51.5 -76z" />
<glyph unicode="(" horiz-adv-x="1024" d="M199.5 368.5q15.5 -112.5 86 -194.5t193.5 -128t289 -46l471 1229q-166 0 -324.5 -46t-292 -128t-234.5 -194.5t-152.5 -246t-36 -246z" />
<glyph unicode=")" horiz-adv-x="1024" d="M0 0q166 0 324.5 46t293 128t234.5 194.5t151.5 246t37 246t-86 194.5t-194.5 128t-289 46z" />
<glyph unicode="*" horiz-adv-x="1150" d="M238 618l526 205l369 -205h-895zM315 823l107 277h895l-107 -277h-895zM502 1305h895l-527 -205z" />
<glyph unicode="+" horiz-adv-x="1536" d="M158 410h383l-80 -205h512l80 205h385l157 409h-385l78 205h-512l-78 -205h-383z" />
<glyph unicode="," horiz-adv-x="776" d="M-63.5 -214q2.5 -26 17.5 -41t52 -15q49 0 129 27.5t161 68.5t144.5 88t79.5 86l84 221h-10q8 37 -1 71t-33.5 60.5t-62.5 42t-83 15.5q-47 0 -99.5 -17.5t-100.5 -46.5t-85 -65.5t-51 -75.5l-113 -293q-12 -35 -21.5 -67.5t-7 -58.5z" />
<glyph unicode="-" horiz-adv-x="1536" d="M158 410h1280l157 409h-1280z" />
<glyph unicode="." horiz-adv-x="768" d="M73 131q9 -37 33.5 -66.5t63.5 -47t86 -17.5q49 0 102.5 17.5t100.5 47t81.5 66.5t49.5 74q14 39 7 75.5t-31.5 65.5t-63.5 46.5t-88 17.5q-47 0 -99.5 -17.5t-100.5 -46.5t-85 -65.5t-51 -75.5q-14 -37 -5 -74z" />
<glyph unicode="/" horiz-adv-x="1241" d="M0 0h473l983 1229h-512z" />
<glyph unicode="0" d="M199.5 368.5q15.5 -112.5 86 -194.5t193.5 -128t289 -46t324.5 46t293 128t235 194.5t151.5 245.5q51 135 37.5 248t-84 194t-194.5 127t-292 46q-166 0 -324.5 -46t-292 -128t-234.5 -194.5t-152.5 -246t-36 -246z" />
<glyph unicode="1" horiz-adv-x="768" d="M0 0h512l471 1229h-512z" />
<glyph unicode="2" horiz-adv-x="1794" d="M0 0h1536l158 410h-768q184 0 340.5 33.5t276.5 91t199 131t109 153.5q33 78 9.5 153t-101.5 132t-208 92t-312 33h-768l-143 -377h575q78 -49 -43 -109h-575l-127 -333z" />
<glyph unicode="3" d="M0 0l119 307h520q59 29 72 53q6 25 -33 52h-520l168 436h503q127 49 39 100h-503l112 295h1497l-796 -547h61q143 0 238.5 -19.5t144.5 -64.5t56.5 -119.5t-23.5 -185.5q-121 -307 -887 -307h-768z" />
<glyph unicode="4" d="M158 410h1024l-158 -410h512l276 721h-540q-43 23 -31 53q12 33 78 53h534l154 402h-512l-1180 -410z" />
<glyph unicode="5" d="M0 0h768q180 -4 339 37t282.5 106.5t206.5 147.5t112 160q35 88 -84 266h-584q-43 23 -30 51q10 31 73 51h768l156 410h-1536l-156 -410l611 -409h-768z" />
<glyph unicode="6" d="M119 307q-121 -307 649 -307q766 0 887 307q39 100 59.5 174t23.5 127.5t-10.5 88t-44.5 57.5q-61 45 -186 55q-63 4 -164.5 7t-249.5 3l668 410h-768l-668 -410zM821 295l101 260q43 31 75 31q39 0 45 -31l-100 -260q-41 -31 -72 -31q-35 0 -49 31z" />
<glyph unicode="7" d="M250 653l223 580h768h768l-473 -1233h-766l250 653h-770z" />
<glyph unicode="8" d="M119 307q-121 -307 649 -307q766 0 887 307q113 297 -613 307q731 6 848 308q117 307 -651 307t-885 -307q-117 -301 611 -308q-733 -10 -846 -307zM782 195l103 262q41 29 73 28q37 0 48 -28l-103 -262q-37 -31 -72 -31q-31 0 -49 31zM1016 811l100 260q43 31 76 31 q37 0 43 -31l-100 -260q-37 -31 -74 -31q-33 0 -45 31z" />
<glyph unicode="9" d="M256 0h768l670 410l196 512q117 307 -651 307t-885 -307q-57 -152 -48 -250.5t82 -156.5t208 -81.5t330 -23.5zM967 698l100 263q41 29 78 28q33 0 43 -28l-101 -263q-41 -31 -73 -30q-33 0 -47 30z" />
<glyph unicode=":" horiz-adv-x="768" d="M73 131q9 -37 33.5 -66.5t63.5 -47t86 -17.5q49 0 102.5 17.5t100.5 47t81.5 66.5t49.5 74q14 39 7 75.5t-31.5 65.5t-63.5 46.5t-88 17.5q-47 0 -99.5 -17.5t-100.5 -46.5t-85 -65.5t-51 -75.5q-14 -37 -5 -74zM307 743.5q8 -36.5 34 -65.5t64.5 -46.5t86.5 -17.5 q49 0 102 17.5t99 46.5t82 65.5t52 75.5q14 37 6 74t-32.5 66.5t-63.5 47t-88 17.5q-47 0 -99 -17.5t-100.5 -47t-84.5 -66.5t-50 -74q-16 -39 -8 -75.5z" />
<glyph unicode=";" horiz-adv-x="778" d="M-63.5 -214q2.5 -26 17.5 -41t52 -15q49 0 129 27.5t161 68.5t144.5 88t79.5 86l84 221h-10q8 37 -1 71t-33.5 60.5t-62.5 42t-83 15.5q-47 0 -99.5 -17.5t-100.5 -46.5t-85 -65.5t-51 -75.5l-113 -293q-12 -35 -21.5 -67.5t-7 -58.5zM318 743.5q8 -36.5 33.5 -65.5 t64.5 -46.5t86 -17.5q49 0 102 17.5t99.5 46.5t82 65.5t52.5 75.5q14 37 6 74t-33 66.5t-63.5 47t-88.5 17.5q-47 0 -99 -17.5t-100 -47t-84 -66.5t-50 -74q-16 -39 -8 -75.5z" />
<glyph unicode="&#x3c;" horiz-adv-x="1024" d="M236 614l532 -614l471 1229z" />
<glyph unicode="=" horiz-adv-x="1536" d="M158 410l78 204h1280l-78 -204h-1280zM289 752l78 204h1280l-78 -204h-1280z" />
<glyph unicode="&#x3e;" horiz-adv-x="1024" d="M0 0l1004 614l-533 615z" />
<glyph unicode="?" d="M73 131q9 -37 33.5 -66.5t63.5 -47t86 -17.5q49 0 102.5 17.5t100.5 47t81.5 66.5t49.5 74q14 39 7 75.5t-31.5 65.5t-63.5 46.5t-88 17.5q-47 0 -99.5 -17.5t-100.5 -46.5t-85 -65.5t-51 -75.5q-14 -37 -5 -74zM236 614h768q242 0 364 7q139 6 231 32q104 29 176 92.5 t115 176t20.5 176t-108.5 92.5q-41 14 -91 22.5t-112 10.5q-121 6 -360 6h-768z" />
<glyph unicode="@" d="M199.5 368.5q15.5 -112.5 86 -194.5t193.5 -128t289 -46t324.5 46t293 128t235 194.5t151.5 245.5q51 135 37.5 248t-84 194t-194.5 127t-292 46q-166 0 -324.5 -46t-292 -128t-234.5 -194.5t-152.5 -246t-36 -246zM414 410l747 614l277 -614h-1024z" />
<glyph unicode="A" d="M0 0l602 580h770l164 -580h-1536zM705 688l534 539l125 -539h-659z" />
<glyph unicode="B" d="M0 0l223 580h746q692 -23 692 -233q0 -19 -6 -40q-121 -307 -887 -307h-768zM264 688l209 545h768q673 -5 673 -221q0 -30 -13 -64q-114 -252 -902 -260h-735z" />
<glyph unicode="C" horiz-adv-x="1796" d="M217 297q-21 67 -21 133q0 75 27 150h1540l-223 -580h-768q-225 0 -367.5 78t-187.5 219zM274 688q39 104 185 242q154 141 358 219q205 80 426 80h758l-207 -541h-770h-750z" />
<glyph unicode="D" d="M0 0l223 580h1536q-59 -141 -213 -283q-156 -141 -358 -219q-205 -78 -426 -78h-762zM264 688l207 541h762q227 0 369.5 -79t185.5 -220q23 -70 23 -132q0 -59 -21 -110h-750h-776z" />
<glyph unicode="E" d="M0 0l223 580h1149l-59 -152h387l-164 -428h-1536zM264 688l209 545h766l-160 -418h394l-50 -127h-1159z" />
<glyph unicode="F" horiz-adv-x="1796" d="M0 0l223 580h1139l-53 -136h-373l-170 -444h-766zM264 688l209 545h1540l-151 -393h-402l-57 -152h-1139z" />
<glyph unicode="G" horiz-adv-x="1796" d="M197 438q0 72 26 142h1540l-223 -580h-512l31 82l-287 -82q-225 0 -367.5 78t-187.5 219q-20 72 -20 141zM274 688q39 104 185 242q156 141 357.5 220t426.5 79q223 0 365 -80q147 -76 190 -219q25 -61 25 -119q0 -63 -29 -123h-1520z" />
<glyph unicode="H" horiz-adv-x="1886" d="M0 0h1630l223 580h-1630zM264 688h1630l209 547h-561l-168 -442h-528l168 440h-541z" />
<glyph unicode="I" horiz-adv-x="1103" d="M80 0l223 580h764l-223 -580h-764zM344 688l209 545h768l-209 -545h-768z" />
<glyph unicode="J" horiz-adv-x="1765" d="M195 297q-18 51 -18 102q0 60 24 121q8 27 24 55h742h764l-5 -10q-51 -135 -196 -268q-154 -141 -358.5 -219t-423.5 -78q-225 0 -368.5 78t-184.5 219zM1010 688l207 541h763l-206 -541h-764z" />
<glyph unicode="K" d="M0 0l223 580h746l567 -580h-1536zM264 688l209 545h1530l-1004 -545h-735z" />
<glyph unicode="L" d="M0 0l223 580h1536l-223 -580h-1536zM264 688l209 545h768l-209 -545h-768z" />
<glyph unicode="M" d="M0 0l223 580h1536l-223 -580h-1536zM264 688l209 545l571 -533l963 529l-207 -541h-1536z" />
<glyph unicode="N" d="M0 0l223 580h1536l-223 -580h-1536zM264 688l209 545l541 -520l198 520h797l-209 -545h-1536z" />
<glyph unicode="O" horiz-adv-x="1781" d="M205 450v-15q0 -60 14 -128q27 -145 174 -229q152 -78 367 -78q223 0 428 78q209 84 360 235q80 82 130.5 147.5t66.5 114.5h-1522q-16 -59 -18 -125zM266 688h1522q25 52 28 114v12q0 56 -26 116q-41 143 -191 219q-141 80 -362 80q-227 0 -429 -79t-357 -220 q-145 -137 -185 -242z" />
<glyph unicode="P" d="M0 0l223 580h766l-223 -580h-766zM264 688l209 545h768q673 -5 673 -221q0 -30 -13 -64q-114 -252 -902 -260h-735z" />
<glyph unicode="Q" horiz-adv-x="1796" d="M197 438q0 72 26 142h1540l-256 -664h-516l33 84h-252q-225 0 -367.5 78t-187.5 219q-20 72 -20 141zM274 688q39 104 185 242q156 141 357.5 220t426.5 79q223 0 365 -80q147 -76 190 -219q25 -61 25 -119q0 -63 -29 -123h-1520z" />
<glyph unicode="R" d="M0 0l223 580h746l567 -580h-1536zM264 688l209 545h768q673 -5 673 -221q0 -30 -13 -64q-114 -252 -902 -260h-735z" />
<glyph unicode="S" d="M0 0l223 580h746q692 -23 692 -233q0 -19 -6 -40q-121 -307 -887 -307h-768zM365 948q109 281 874 281h768l-207 -541h-735q-708 7 -708 214q0 22 8 46z" />
<glyph unicode="T" horiz-adv-x="1796" d="M264 688l209 545h1540l-209 -545h-1540zM373 0l223 580h766l-223 -580h-766z" />
<glyph unicode="U" d="M211 297q45 -141 188.5 -219t368.5 -78q219 0 424 78t358 219q152 135 201 278h-764h-766q-28 -72 -28 -149q0 -63 18 -129zM264 688h1536l211 551h-1536z" />
<glyph unicode="V" horiz-adv-x="1824" d="M473 1233h1569l-561 -545h-877zM633 580h735l-600 -580z" />
<glyph unicode="W" horiz-adv-x="1796" d="M0 0l985 557l551 -555l223 578h-1536zM264 688h1540l209 545h-1540z" />
<glyph unicode="X" horiz-adv-x="1830" d="M0 0l590 580h803l143 -580h-1536zM473 1233h1575l-604 -545h-819z" />
<glyph unicode="Y" horiz-adv-x="1830" d="M383 0l223 580h766l-223 -580h-766zM473 1233h1575l-567 -545h-877z" />
<glyph unicode="Z" d="M119 307q-16 -42 -16 -78q0 -229 665 -229h768l223 580h-745q-772 -25 -895 -273zM264 688h735q788 8 902 260q13 34 13 64q0 216 -673 221h-768z" />
<glyph unicode="[" horiz-adv-x="1024" d="M0 0h768l158 410h-256l157 409h256l156 410h-768z" />
<glyph unicode="\" horiz-adv-x="1280" d="M471 1229l41 -1229h512l-41 1229h-512z" />
<glyph unicode="]" horiz-adv-x="1024" d="M0 0h768l471 1229h-768l-156 -410h256l-157 -409h-256z" />
<glyph unicode="^" horiz-adv-x="1280" d="M315 819h1024l-356 410z" />
<glyph unicode="_" horiz-adv-x="2048" d="M-127 -330l80 205h1792l-80 -205h-1792z" />
<glyph unicode="`" horiz-adv-x="765" d="M473 1233h510l-158 -414z" />
<glyph unicode="a" horiz-adv-x="1800" d="M0 0h707l161 420q37 53 76 53q41 0 41 -49l-162 -424h721l-303 1233z" />
<glyph unicode="b" d="M0 0l113 293h770q57 20 69 53q3 7 3 13q0 22 -33 36h-770l170 441h759q63 8 78 53q2 9 2 16q0 33 -37 43h-759l106 281h768q666 0 667 -231q0 -35 -16 -76q-31 -78 -88 -135.5t-153.5 -96.5t-234.5 -58.5t-331 -19.5q193 0 317 -18.5t190.5 -57t79.5 -96.5q4 -18 4 -38 q0 -43 -19 -95q-121 -307 -887 -307h-768z" />
<glyph unicode="c" horiz-adv-x="1794" d="M198 386q-1 14 -1 28q0 98 41 200q45 119 138 230.5t222 196.5t292 136.5t351 51.5h768l-217 -565h-745q-61 -16 -74 -56q-2 -6 -2 -12q0 -25 45 -33h739l-217 -563h-768h-26q-167 0 -283 48q-125 52 -190.5 139t-72.5 199z" />
<glyph unicode="d" horiz-adv-x="1794" d="M0 0h768h26q168 0 320 48q164 52 296 139t226.5 198.5t135.5 228.5q39 104 40 202q0 14 -2 28q-6 112 -70.5 197t-188.5 136.5t-312 51.5h-768l-217 -565h745q38 -12 38 -37q0 -9 -5 -19q-18 -37 -76 -45h-739z" />
<glyph unicode="e" d="M0 0h1536l143 373h-1046q-43 13 -43 36q0 5 2 11q12 33 78 51h659l135 348h-667q-42 16 -42 39q0 6 3 13q14 32 80 57h286l115 301h-768z" />
<glyph unicode="f" d="M0 0l471 1229h1536l-149 -393h-1022q-66 -29 -78 -60q-2 -7 -2 -13q0 -23 37 -36h503l-120 -317h-506l-158 -410h-512z" />
<glyph unicode="g" d="M200 368q-4 27 -4 54q0 90 40 192q51 134 152 246.5t234.5 194.5t292 128t324.5 46q92 0 178 -22.5t152 -63.5q68 -41 117 -99q47 -53 75 -217l-10 -106h-678q-76 -20 -88 -55q-2 -6 -2 -12q0 -26 45 -38h746l-238 -616h-512l31 82l-287 -82q-166 0 -289 46t-193.5 128 t-85.5 194z" />
<glyph unicode="h" d="M0 0l471 1229h690l-166 -432q2 -49 41 -49q43 0 86 49l166 430h719l-471 -1227h-717l158 412q-27 39 -57 39q-33 0 -72 -39l-158 -412h-690z" />
<glyph unicode="i" horiz-adv-x="1097" d="M72 0l471 1229h770l-471 -1229h-770z" />
<glyph unicode="j" d="M200 368q15 -112 85.5 -194t193.5 -128t289 -46t324.5 46t293 128t234.5 194.5t152 245.5l235 615h-768l-235 -615l-105 -272q-41 -39 -84 -39q-39 0 -45 37l104 274h-638q-39 -103 -39 -193q0 -27 3 -53z" />
<glyph unicode="k" d="M0 0l471 1229h483l-153 -402q-2 -10 -2 -19q0 -36 35 -36q39 0 92 55l153 400h932l-1007 -613l532 -614h-932l150 387q-6 53 -43 53q-43 0 -80 -53l-150 -387h-481z" />
<glyph unicode="l" d="M0 0l473 1233h766l-250 -653h770l-223 -580h-1536z" />
<glyph unicode="m" d="M0 0h410l159 416q49 37 78 37q31 0 53 -37l-159 -416h460l156 408q38 36 76 36h2q37 0 49 -36l-156 -408h408l471 1229l-1003 -615l-533 615z" />
<glyph unicode="n" d="M0 0l471 1229l533 -615l237 619h768l-473 -1233h-995l159 416q-23 37 -53 37q-29 0 -78 -37l-159 -416h-410z" />
<glyph unicode="o" d="M200 368q16 -112 86 -194t193 -128t289 -46t324.5 46t293 128t235 194.5t151.5 245.5q40 107 40 200q0 25 -2 48q-14 113 -84.5 194t-194.5 127t-292 46q-166 0 -324.5 -46t-292 -128t-234.5 -195q-100 -112 -152 -246q-40 -103 -40 -192q0 -28 4 -54zM866 424l166 432 q51 47 82 47q33 0 37 -47l-166 -432q-41 -47 -80 -47q-35 0 -39 47z" />
<glyph unicode="p" horiz-adv-x="1794" d="M0 0l297 776h760q76 12 90 51q3 8 3 15q0 29 -52 39h-760l135 352h768q180 0 311 -35t208 -93t100 -133q10 -31 10 -63q0 -44 -19 -90q-31 -80 -109.5 -153.5t-198.5 -131t-276.5 -91t-340.5 -33.5l-158 -410h-768z" />
<glyph unicode="q" d="M211 297q-16 56 -16 115q0 96 41 202q51 133 152 246t234.5 195t292 128t324.5 46q168 0 292 -46t194.5 -127t84.5 -194q2 -23 2 -48q0 -92 -40 -200l-236 -614l-31 -80h-524l33 84h-37q-438 0 -576 74q-145 82 -190 219zM866 424q4 -47 39 -47q39 0 80 47l166 432 q-4 47 -43 47t-76 -47z" />
<glyph unicode="r" horiz-adv-x="1794" d="M0 0h594l98 256q31 41 72 41t51 -37l-100 -260h790l-336 412q391 115 514 206q123 94 168 201q19 44 19 88q0 31 -10 63q-24 74 -101.5 132.5t-208.5 94.5t-315 36h-762l-135 -352h760q52 -10 52 -38q0 -7 -3 -16q-14 -39 -90 -51h-760z" />
<glyph unicode="s" d="M0 0h1024q119 0 225.5 27.5t192.5 81t150.5 129t101.5 172.5q16 45 16 89q0 126 -133 249h-524q-33 25 -23 54t64 50h770l143 377h-1024q-121 0 -226.5 -27.5t-191.5 -81t-149.5 -129.5t-100.5 -172q-15 -39 -15 -78q0 -37 13 -71q27 -72 105 -154h547q30 -10 30 -33 q0 -8 -4 -18q-12 -33 -65 -55h-768z" />
<glyph unicode="t" horiz-adv-x="1796" d="M264 688l209 545h1540l-209 -545h-401l-264 -688h-766l264 688h-373z" />
<glyph unicode="u" d="M200 368q-4 26 -4 53q0 90 40 193l235 615h686l-258 -676q18 -37 45 -37q23 0 72 37l260 678h733l-237 -617q-51 -133 -151.5 -245.5t-235 -194.5t-293 -128t-324.5 -46t-289 46t-193 128t-86 194z" />
<glyph unicode="v" horiz-adv-x="1789" d="M471 1229l297 -1229l1237 1227h-702l-160 -414q-41 -53 -80 -53t-41 49l160 418z" />
<glyph unicode="w" d="M0 0l471 1229h410l-160 -416q20 -37 49 -37q33 0 82 37l160 416h461l-156 -408q8 -37 49 -37q35 0 78 37l155 408h408l-471 -1229l-532 614z" />
<glyph unicode="x" horiz-adv-x="1822" d="M0 0h709l157 412q31 49 70 49q41 0 53 -45l-160 -416h707l-332 600l836 633h-729l-158 -410q-41 -43 -82 -43q-39 0 -39 47l156 406h-715l318 -633z" />
<glyph unicode="y" d="M0 0l158 410h512l-199 819h686l-166 -436q0 -51 35 -52q33 0 92 52l168 440h723l-1241 -1233h-768z" />
<glyph unicode="z" d="M0 0h1536l145 377h-770q-39 16 -28 47q14 33 73 59l895 336l156 410h-512h-1024l-156 -410h768q37 -23 25 -49q-8 -27 -68 -57v4l-882 -307z" />
<glyph unicode="{" horiz-adv-x="1024" d="M199.5 368.5q15.5 -112.5 86 -194.5t193.5 -128t289 -46l471 1229q-166 0 -324.5 -46t-292 -128t-234.5 -194.5t-152.5 -246t-36 -246z" />
<glyph unicode="|" horiz-adv-x="768" d="M-78 -205h512l629 1639h-512z" />
<glyph unicode="}" horiz-adv-x="1024" d="M0 0q166 0 324.5 46t293 128t234.5 194.5t151.5 246t37 246t-86 194.5t-194.5 128t-289 46z" />
<glyph unicode="~" horiz-adv-x="1024" d="M315 819l156 410l434 -205l78 205h256l-156 -410q-47 -2 -86 -2h-75h-127h-207h-137h-68h-35q-16 0 -33 2z" />
<glyph unicode="&#xa1;" horiz-adv-x="768" d="M0 0l236 614h512l-236 -614h-512zM385 948q-8 37 8 76q14 37 50 74t82 66.5t99.5 47t102.5 17.5q47 0 86 -17.5t64.5 -47t33.5 -66.5t-6 -74q-16 -39 -52 -76t-83 -65.5t-99.5 -46t-99.5 -17.5q-49 0 -89 17.5t-64.5 46t-32.5 65.5z" />
<glyph unicode="&#xa2;" horiz-adv-x="1796" d="M197 438q0 -70 20 -141q18 -59 44 -107.5t66 -83t98 -58t142 -34.5l23 -6l-80 -205h512l76 197h442l223 580h-1540q-27 -70 -26 -142zM274 688h1520l207 541h-432l78 201h-512l-78 -205q-10 -4 -34 -10.5t-56.5 -15.5t-71.5 -22.5t-78 -27.5q-205 -78 -358 -219 q-146 -138 -185 -242z" />
<glyph unicode="&#xa4;" horiz-adv-x="1824" d="M0 0h709l96 252q8 -2 31 -2h36h54l-97 -250h707l-201 362q98 53 171 122t102 147q29 70 15.5 131t-56.5 110l475 361h-729l-84 -221q-16 0 -31.5 1t-32.5 1q-16 0 -30.5 -1t-30.5 -1l84 221h-715l180 -361q-82 -49 -140 -111t-85 -130q-29 -78 -12.5 -144.5t71.5 -117.5z M770 637q12 33 43 61.5t72 50t90 34t100 12.5t91 -12.5t64.5 -34t33 -50t-4 -61.5t-43 -61.5t-71.5 -49t-90 -33t-101 -12.5q-102 0 -155.5 45t-28.5 111z" />
<glyph unicode="&#xa5;" horiz-adv-x="1978" d="M0 0l158 410h512l-199 819h686l-166 -436q0 -51 35 -52q25 0 88 47l113 297h2l57 148h723l-149 -148h278l-156 -409h-534l-154 -152h629l-158 -409h-882l-115 -115h-768z" />
<glyph unicode="&#xa6;" horiz-adv-x="1024" d="M-80 -207h760l303 787h-760zM268 688h764l287 748h-764z" />
<glyph unicode="&#xa7;" d="M0 0h1024q119 0 225.5 27.5t192.5 81t150.5 129t101.5 172.5q43 113 30.5 187.5t-71.5 121.5q0 53 -25 100h223l156 410h-1024q-121 0 -226.5 -27.5t-191.5 -81t-149.5 -129.5t-100.5 -172q-29 -70 -7 -137.5t85 -122.5q-10 -78 35 -149h-270zM710 524q-9 39 7 82t56 82 t94.5 68.5t118 46t128.5 16.5q66 0 117 -16.5t83 -46t42 -68.5t-6.5 -82t-56.5 -82t-94 -67.5t-118.5 -45t-130.5 -16.5t-117 16.5t-82.5 45t-40.5 67.5z" />
<glyph unicode="&#xa8;" horiz-adv-x="1406" d="M385 946q8 -37 33.5 -65.5t64.5 -46t86 -17.5q49 0 102.5 17.5t99.5 46t82 65.5t52 76q14 37 6 74t-32.5 66.5t-63.5 47t-88 17.5q-47 0 -99.5 -17.5t-100.5 -47t-84 -66.5t-50 -74q-16 -39 -8 -76zM1024 946q8 -37 33.5 -65.5t64.5 -46t86 -17.5q49 0 102.5 17.5 t99.5 46t82 65.5t52 76q14 37 6 74t-32.5 66.5t-63.5 47t-88 17.5q-47 0 -99.5 -17.5t-100.5 -47t-84 -66.5t-50 -74q-16 -39 -8 -76z" />
<glyph unicode="&#xa9;" horiz-adv-x="3670" d="M270 651l15 90l254 37l-78 127l65 107l260 -17q96 250 197 250h10l226 -74q225 184 354 222l162 -111l469 164l71 -53l-49 -58l21 -16l479 74l149 -21l-59 -102h539l30 -37q-37 -98 -135 -111l422 -90q-2 -8 -2 -14t-4 -14q-35 -86 -201 -99q262 -88 244 -139l-2 -4 l-74 -74h-205l80 -147q-4 -8 -3 -16.5t-3 -16.5q-25 -66 -106 -78l-211 37l-105 -217q-47 -37 -106 -37q-90 0 -201 74l-297 -197l-119 -16l-98 102l-498 -176l-61 16l43 111l-592 -74l-57 37l59 86l-580 37l29 74l92 53l-338 57q-66 0 -39 70l162 90zM336 705l321 -164 l-280 -90l504 -91l-222 -110l627 -21l-112 -118l598 90l38 -74l-49 -74l518 176l166 -102l312 213l258 -74l125 258l276 -37q6 8 9 13l3 4q20 47 -98 221l303 16l-12 37l-307 144l245 53h25l-10 37l-488 94l224 102h-611l97 127l-615 -65l14 102l-38 21l-465 -160l-142 102 l-331 -213q-35 -12 -52 -12q-92 0 -192 86l-141 -254l-291 16l2 -73l92 -160zM770 537l166 327l76 8l-144 -315zM971 651q4 12 7 24.5t5 16.5q59 152 356 185l-34 -74q-10 8 -37 8q-61 0 -125 -49q-86 -61 -111 -127q-25 -61 62 -62q57 0 82 9l-19 -58q-33 -8 -84 -8 q-125 0 -102 135zM1266 594q78 201 256 274q10 2 16 3l6 1h21q133 1 121 -110q-121 -221 -236 -221q-20 0 -37.5 -2t-28.5 -2q-113 0 -118 57zM1368 672q-31 -78 41 -78q47 0 121 33q51 55 65 90q12 27 7 41q-16 41 -62 41q-70 0 -156 -99q-4 -10 -9 -17t-7 -11zM1655 537 l110 315l154 -201l100 221l64 -16l-121 -315q-96 0 -184 159l-62 -159zM2036 545l174 327l78 17l-144 -316zM2210 569q76 160 284 316q23 8 60 8q78 0 59 -98l-86 -238l-41 12q-18 74 -63 74q-57 0 -131 -74h-82zM2392 709h123l-6 106zM2605 545l109 323l157 -200l103 221 l57 -21l-121 -315q-98 0 -186 156l-60 -152zM2955 520l68 37l51 -20l-88 -54zM3037 643l115 246l84 -21l-137 -237z" />
<glyph unicode="&#xaa;" horiz-adv-x="1026" d="M238 618h352l80 209q20 27 39 27q20 0 20 -25l-80 -211h359l-152 617z" />
<glyph unicode="&#xab;" horiz-adv-x="1382" d="M233 610l670 410l-313 -819zM848 610l670 410l-314 -819z" />
<glyph unicode="&#xac;" horiz-adv-x="1529" d="M158 410l157 409h1274l-215 -557q-14 -39 -50 -75.5t-82 -65.5t-99 -46.5t-103 -17.5q-47 0 -86 17.5t-64.5 46.5t-33.5 65.5t6 75.5l58 148h-762z" />
<glyph unicode="&#xad;" horiz-adv-x="1159" d="M156 408l157 409h904l-156 -407z" />
<glyph unicode="&#xae;" horiz-adv-x="3670" d="M270 651l209 -94l-162 -90q-27 -70 39 -70l338 -57l-92 -53l-29 -74l580 -37l-59 -86l57 -37l592 74l-43 -111l61 -16l498 176l98 -102l119 16l297 197q111 -74 201 -74q59 0 106 37l105 217l211 -37q82 12 106 78q4 8 3 16t3 17l-80 147h205l74 74l2 4q18 51 -244 139 q166 12 201 99q4 8 4 14t2 14l-422 90q98 12 135 111l-30 37h-539l59 102l-149 21l-479 -74l-21 16l49 58l-71 53l-469 -164l-162 111q-133 -33 -354 -222l-226 74h-10q-100 0 -197 -250l-260 17l-65 -107l78 -127l-254 -37zM770 537l166 327l76 8l-144 -315zM971 651 q4 12 7 24.5t5 16.5q59 152 356 185l-34 -74q-10 8 -37 8q-61 0 -125 -49q-86 -61 -111 -127q-25 -61 62 -62q23 0 43 2.5t39 6.5l-19 -58q-33 -8 -84 -8q-125 0 -102 135zM1266 594q78 201 256 274q10 2 16 3l6 1h21q133 1 121 -110q-121 -221 -236 -221q-20 0 -37.5 -2 t-28.5 -2q-113 0 -118 57zM1368 672q-31 -78 41 -78q47 0 121 33q51 55 65 90q12 27 7 41q-16 41 -62 41q-70 0 -156 -99q-4 -10 -9 -17t-7 -11zM1655 537l110 315l154 -201l100 221l64 -16l-121 -315q-96 0 -184 159l-62 -159zM2036 545l174 327l78 17l-144 -316zM2210 569 q76 160 284 316q23 8 60 8q78 0 59 -98l-86 -238l-41 12q-18 74 -63 74q-57 0 -131 -74h-82zM2392 709h123l-6 106zM2605 545l109 323l157 -200l103 221l57 -21l-121 -315q-98 0 -186 156l-60 -152zM2955 520l68 37l51 -20l-88 -54zM3037 643l115 246l84 -21l-137 -237z" />
<glyph unicode="&#xaf;" horiz-adv-x="2048" d="M614 1602h1792l80 204h-1792z" />
<glyph unicode="&#xb0;" horiz-adv-x="1021" d="M340 840q0 -33 8 -68q12 -74 86 -115q70 -39 184 -39q119 0 211 39q53 20 99.5 49t83.5 68q41 39 64.5 72t33.5 59h-760q-10 -31 -10 -65zM371 963h759q29 53 3 120q-18 70 -95 109q-76 41 -182 41q-117 0 -213 -39q-102 -41 -178 -111q-41 -35 -62.5 -65.5t-31.5 -54.5z " />
<glyph unicode="&#xb1;" horiz-adv-x="1536" d="M0 0l115 299h1280l-115 -299h-1280zM244 635l116 305h383l80 205h512l-80 -205h385l-116 -305h-385l-78 -205h-512l78 205h-383z" />
<glyph unicode="&#xb2;" horiz-adv-x="1026" d="M238 621h768l79 204h-385q92 0 170 17.5t138.5 45t99.5 64.5t55 78q14 39 3 76t-50 65.5t-104.5 46t-155.5 17.5h-383l-72 -188h287q41 -25 -20 -56h-287l-64 -166z" />
<glyph unicode="&#xb3;" horiz-adv-x="1024" d="M236 614l59 154h258q31 12 37 27q4 12 -17 24h-258l84 219h250q68 25 19 49h-250l55 148h748l-400 -272h31q145 0 192.5 -42t18.5 -153q-59 -154 -445 -154h-382z" />
<glyph unicode="&#xb4;" horiz-adv-x="765" d="M315 819l668 414h-510z" />
<glyph unicode="&#xb5;" d="M473 1233h721l-168 -440q20 -51 51 -52q33 0 78 52l166 436h686l-825 -819h512l-158 -410h-768z" />
<glyph unicode="&#xb6;" d="M365 948q106 279 876 285h768l-209 -545h-735q-782 8 -700 260zM377 -350l358 930h1024l-364 -930h-1018z" />
<glyph unicode="&#xb7;" horiz-adv-x="768" d="M266 637q-8 37 8 76q14 37 50 73.5t84.5 66.5t100.5 47.5t99 17.5q49 0 88 -17.5t63.5 -47.5t33 -66.5t-6.5 -73.5q-16 -39 -52 -76t-82 -65.5t-99 -46t-102 -17.5q-47 0 -86 17.5t-65 46t-34 65.5z" />
<glyph unicode="&#xb8;" horiz-adv-x="765" d="M-133 -348h510l158 414z" />
<glyph unicode="&#xb9;" horiz-adv-x="512" d="M238 621h256l235 614h-256z" />
<glyph unicode="&#xba;" horiz-adv-x="1024" d="M335.5 801.5q6.5 -56.5 42.5 -97t97.5 -63.5t145.5 -23q82 0 160.5 23t146 63.5t118.5 97t78 124.5q25 68 18 124t-42 97t-97.5 63.5t-146.5 22.5t-164 -23.5t-146.5 -64.5t-115.5 -97.5t-74 -121.5q-27 -68 -20.5 -124.5z" />
<glyph unicode="&#xbb;" horiz-adv-x="1382" d="M78 201l667 409l-354 410zM692 201l668 409l-354 410z" />
<glyph unicode="&#xbc;" horiz-adv-x="1912" d="M152 0h473l983 1229h-512zM236 612h256l235 615h-256zM967 205h512l-78 -205h256l139 360h-272q-23 8 -15 27q2 12 37 27h271l75 200h-256l-589 -204z" />
<glyph unicode="&#xbd;" horiz-adv-x="1994" d="M152 0h473l983 1229h-512zM236 612h256l235 615h-256zM967 0h768l77 205h-382q92 0 169.5 17.5t138 45t99.5 64.5t55 78q14 39 2 75.5t-50 65.5t-102.5 46t-154.5 17h-385l-72 -188h287q43 -25 -22 -55h-287l-64 -166z" />
<glyph unicode="&#xbe;" horiz-adv-x="2318" d="M236 612h382q383 0 445 154q14 55 10 92t-28.5 60.5t-71.5 33t-121 9.5h-31l400 272h-748l-57 -148h250q49 -25 -19 -49h-250l-84 -219h258q23 -10 19 -24q-6 -14 -37 -27h-258zM557 0h475l983 1229h-512zM1372 205h512l-78 -205h256l140 360h-271q-23 8 -16 27 q2 14 39 27h268l76 200h-256l-590 -204z" />
<glyph unicode="&#xbf;" d="M98.5 131.5q-22.5 63.5 20.5 176t113.5 176t175.5 91.5q45 14 103 21.5t126 11.5q125 6 367 6h768l-236 -614h-768q-244 0 -362 6q-59 2 -110.5 10.5t-92.5 22.5q-82 29 -104.5 92.5zM1409 948q-8 37 8 76q14 37 50 74t82 66.5t99.5 47t102.5 17.5q47 0 86 -17.5 t64.5 -47t33.5 -66.5t-6 -74q-16 -39 -52 -76t-83 -65.5t-99.5 -46t-99.5 -17.5q-49 0 -89 17.5t-64.5 46t-32.5 65.5z" />
<glyph unicode="&#xc0;" d="M0 0h1536l-164 580h-770zM705 688h659l-125 539zM1143 1794l350 -416l160 416h-510z" />
<glyph unicode="&#xc1;" d="M0 0h1536l-164 580h-770zM705 688h659l-125 539zM1100 1378l667 416h-507z" />
<glyph unicode="&#xc2;" d="M0 0h1536l-164 580h-770zM705 688h659l-125 539zM786 1384h1024l-354 410z" />
<glyph unicode="&#xc3;" d="M0 0h1536l-164 580h-770zM705 688h659l-125 539zM915 1389h768l158 409h-256l-78 -205l-434 205z" />
<glyph unicode="&#xc4;" d="M0 0h1536l-164 580h-770zM705 688h659l-125 539zM797 1513.5q8 -36.5 33.5 -65.5t64.5 -46.5t86 -17.5q49 0 102.5 17.5t99.5 46.5t81.5 65.5t52.5 75.5q14 37 7 74t-31.5 66.5t-64.5 47t-89 17.5q-47 0 -99.5 -17.5t-99.5 -47t-84 -66.5t-51 -74q-16 -39 -8 -75.5z M1436 1513.5q8 -36.5 33.5 -65.5t64.5 -46.5t86 -17.5q49 0 102.5 17.5t99.5 46.5t81.5 65.5t52.5 75.5q14 37 7 74t-31.5 66.5t-64.5 47t-89 17.5q-47 0 -99.5 -17.5t-99.5 -47t-84 -66.5t-51 -74q-16 -39 -8 -75.5z" />
<glyph unicode="&#xc5;" d="M0 0h1536l-164 580h-770zM705 688h659l-125 539zM1114 1513.5q8 -36.5 34 -65.5t64.5 -46.5t85.5 -17.5q49 0 102.5 17.5t99.5 46.5t82 65.5t52 75.5q14 37 7 74t-31.5 66.5t-64.5 47t-89 17.5q-47 0 -99 -17.5t-99.5 -47t-84.5 -66.5t-51 -74q-16 -39 -8 -75.5z" />
<glyph unicode="&#xc6;" horiz-adv-x="2930" d="M0 0h2675l164 428h-388l60 152h-1909zM705 688h659l-125 539zM1403 688h1159l49 127h-393l160 418h-766z" />
<glyph unicode="&#xc7;" horiz-adv-x="1796" d="M197 438q0 -70 20 -141q45 -141 187.5 -219t367.5 -78h182l-561 -348h510l133 348h504l223 580h-1540q-27 -70 -26 -142zM274 688h1520l207 541h-758q-221 0 -426 -80q-205 -78 -358 -219q-146 -138 -185 -242z" />
<glyph unicode="&#xc8;" d="M0 0h1536l164 428h-387l59 152h-1149zM264 688h1159l50 127h-394l160 418h-766zM1053 1798l350 -416l160 416h-510z" />
<glyph unicode="&#xc9;" d="M0 0h1536l164 428h-387l59 152h-1149zM264 688h1159l50 127h-394l160 418h-766zM1194 1382l668 416h-508z" />
<glyph unicode="&#xca;" d="M0 0h1536l164 428h-387l59 152h-1149zM264 688h1159l50 127h-394l160 418h-766zM776 1384h1024l-354 410z" />
<glyph unicode="&#xcb;" d="M0 0h1536l164 428h-387l59 152h-1149zM264 688h1159l50 127h-394l160 418h-766zM750 1513.5q8 -36.5 33.5 -65.5t64.5 -46.5t86 -17.5q49 0 102.5 17.5t99.5 46.5t81.5 65.5t52.5 75.5q14 37 7 74t-31.5 66.5t-64.5 47t-89 17.5q-47 0 -99.5 -17.5t-99.5 -47t-84 -66.5 t-51 -74q-16 -39 -8 -75.5zM1391 1513.5q8 -36.5 33.5 -65.5t64.5 -46.5t86 -17.5q49 0 102.5 17.5t99.5 46.5t81.5 65.5t52.5 75.5q14 37 7 74t-31.5 66.5t-64.5 47t-89 17.5q-47 0 -99.5 -17.5t-99.5 -47t-84 -66.5t-51 -74q-16 -39 -8 -75.5z" />
<glyph unicode="&#xcc;" horiz-adv-x="1024" d="M0 0h766l223 580h-766zM264 688h768l209 545h-768zM782 1794l351 -416l159 416h-510z" />
<glyph unicode="&#xcd;" horiz-adv-x="1024" d="M0 0h766l223 580h-766zM264 688h768l209 545h-768zM692 1378l670 416h-510z" />
<glyph unicode="&#xce;" horiz-adv-x="1052" d="M70 0l223 580h764l-223 -580h-764zM334 688l205 545h772l-209 -545h-768zM473 1384l670 410l354 -410h-1024z" />
<glyph unicode="&#xcf;" horiz-adv-x="1052" d="M70 0l223 580h764l-223 -580h-764zM334 688l209 545h768l-209 -545h-768zM473 1513.5q-8 36.5 8 75.5q14 37 51 74t84.5 66.5t99.5 47t99 17.5q49 0 89 -17.5t64.5 -47t32 -66.5t-7.5 -74q-16 -39 -52 -75.5t-82 -65.5t-99 -46.5t-103 -17.5q-47 0 -86 17.5t-64.5 46.5 t-33.5 65.5zM1114 1513.5q-8 36.5 8 75.5q14 37 51 74t84.5 66.5t99.5 47t99 17.5q49 0 89 -17.5t64.5 -47t32 -66.5t-7.5 -74q-16 -39 -52 -75.5t-82 -65.5t-99 -46.5t-103 -17.5q-47 0 -85.5 17.5t-64.5 46.5t-34 65.5z" />
<glyph unicode="&#xd0;" horiz-adv-x="2220" d="M160 416h424l-160 -416h768q182 -4 346 48t296 139t226 199t135 228q45 119 39 230.5t-70.5 196.5t-188.5 136.5t-312 51.5h-768l-154 -404h-424z" />
<glyph unicode="&#xd1;" d="M0 0h1536l223 580h-1536zM264 688h1536l209 545h-797l-198 -520l-541 520zM911 1389h768l158 409h-256l-78 -205l-434 205z" />
<glyph unicode="&#xd2;" horiz-adv-x="1781" d="M205 449.5q2 66.5 18 125.5h1522q-33 -92 -197 -262q-152 -152 -360 -235q-205 -78 -428 -78q-215 0 -367 78q-147 84 -174 229q-16 76 -14 142.5zM266 688q39 104 185 242q156 141 357.5 220t428.5 79q221 0 362 -80q150 -76 191 -219q29 -66 27 -125.5t-29 -116.5 h-1522zM1151 1794h510l-160 -416z" />
<glyph unicode="&#xd3;" horiz-adv-x="1781" d="M205 449.5q2 66.5 18 125.5h1522q-33 -92 -197 -262q-152 -152 -360 -235q-205 -78 -428 -78q-215 0 -367 78q-147 84 -174 229q-16 76 -14 142.5zM266 688q39 104 185 242q156 141 357.5 220t428.5 79q221 0 362 -80q150 -76 191 -219q29 -66 27 -125.5t-29 -116.5 h-1522zM1112 1378l160 416h510z" />
<glyph unicode="&#xd4;" horiz-adv-x="1781" d="M205 449.5q2 66.5 18 125.5h1522q-33 -92 -197 -262q-152 -152 -360 -235q-205 -78 -428 -78q-215 0 -367 78q-147 84 -174 229q-16 76 -14 142.5zM266 688q39 104 185 242q156 141 357.5 220t428.5 79q221 0 362 -80q150 -76 191 -219q29 -66 27 -125.5t-29 -116.5 h-1522zM788 1384l670 410l354 -410h-1024z" />
<glyph unicode="&#xd5;" horiz-adv-x="1781" d="M205 449.5q2 66.5 18 125.5h1522q-33 -92 -197 -262q-152 -152 -360 -235q-205 -78 -428 -78q-215 0 -367 78q-147 84 -174 229q-16 76 -14 142.5zM266 688q39 104 185 242q156 141 357.5 220t428.5 79q221 0 362 -80q150 -76 191 -219q29 -66 27 -125.5t-29 -116.5 h-1522zM913 1389l158 409l434 -205l78 205h256l-158 -409h-768z" />
<glyph unicode="&#xd6;" horiz-adv-x="1781" d="M205 449.5q2 66.5 18 125.5h1522q-33 -92 -197 -262q-152 -152 -360 -235q-205 -78 -428 -78q-215 0 -367 78q-147 84 -174 229q-16 76 -14 142.5zM266 688q39 104 185 242q156 141 357.5 220t428.5 79q221 0 362 -80q150 -76 191 -219q29 -66 27 -125.5t-29 -116.5 h-1522zM799 1513.5q-8 36.5 8 75.5q14 37 51 74t84 66.5t99.5 47t99.5 17.5q49 0 89 -17.5t64.5 -47t31.5 -66.5t-7 -74q-16 -39 -52 -75.5t-82 -65.5t-99.5 -46.5t-102.5 -17.5q-47 0 -86 17.5t-64.5 46.5t-33.5 65.5zM1440 1513.5q-8 36.5 8 75.5q14 37 50 74t83 66.5 t100.5 47t100.5 17.5q49 0 88 -17.5t63.5 -47t32.5 -66.5t-6 -74q-16 -39 -52 -75.5t-83 -65.5t-99.5 -46.5t-101.5 -17.5q-47 0 -87 17.5t-64.5 46.5t-32.5 65.5z" />
<glyph unicode="&#xd7;" horiz-adv-x="1824" d="M0 0h1536l-332 600l838 633h-1569l318 -633z" />
<glyph unicode="&#xd8;" d="M199.5 368.5q15.5 -112.5 86 -194.5t193.5 -128t289 -46q168 0 326.5 46t292 127t234 193.5t151.5 247.5q51 133 36.5 246t-86 195t-194.5 128t-289 46t-324.5 -46t-292 -128t-234.5 -194.5t-152.5 -246t-36 -246zM571 819h1024l-749 -614z" />
<glyph unicode="&#xd9;" d="M211 297q-41 150 10 278h766h764q-49 -143 -201 -278q-154 -141 -358.5 -219t-423.5 -78q-225 0 -368.5 78t-188.5 219zM264 688l211 551h1536l-211 -551h-1536zM1143 1794h510l-160 -416z" />
<glyph unicode="&#xda;" d="M211 297q-41 150 10 278h766h764q-49 -143 -201 -278q-154 -141 -358.5 -219t-423.5 -78q-225 0 -368.5 78t-188.5 219zM264 688l211 551h1536l-211 -551h-1536zM1100 1378l160 416h507z" />
<glyph unicode="&#xdb;" d="M211 297q-41 150 10 278h766h764q-49 -143 -201 -278q-154 -141 -358.5 -219t-423.5 -78q-225 0 -368.5 78t-188.5 219zM264 688l211 551h1536l-211 -551h-1536zM776 1384l670 410l354 -410h-1024z" />
<glyph unicode="&#xdc;" d="M211 297q-41 150 10 278h766h764q-49 -143 -201 -278q-154 -141 -358.5 -219t-423.5 -78q-225 0 -368.5 78t-188.5 219zM264 688l211 551h1536l-211 -551h-1536zM797 1513.5q-8 36.5 8 75.5q14 37 51 74t84 66.5t99.5 47t99.5 17.5q49 0 89 -17.5t64.5 -47t31.5 -66.5 t-7 -74q-16 -39 -52 -75.5t-82 -65.5t-99.5 -46.5t-102.5 -17.5q-47 0 -86 17.5t-64.5 46.5t-33.5 65.5zM1436 1513.5q-8 36.5 8 75.5q14 37 51 74t84 66.5t99.5 47t99.5 17.5q49 0 89 -17.5t64.5 -47t31.5 -66.5t-7 -74q-16 -39 -52 -75.5t-82 -65.5t-99.5 -46.5 t-102.5 -17.5q-47 0 -86 17.5t-64.5 46.5t-33.5 65.5z" />
<glyph unicode="&#xdd;" horiz-adv-x="1830" d="M383 0h766l223 580h-766zM473 1233l131 -545h877l567 545h-1575zM1100 1378l667 416h-507z" />
<glyph unicode="&#xde;" horiz-adv-x="1628" d="M0 -2l209 547h762q74 12 90 53q14 39 -49 51h-760l221 584h768l-84 -217q186 0 291.5 -33t152 -87t43 -127t-33.5 -153q-31 -78 -84 -152.5t-141.5 -133t-218.5 -94t-310 -35.5l-78 -203h-778z" />
<glyph unicode="&#xdf;" d="M-133 -348h772l133 348q762 0 883 307q27 74 14.5 130.5t-75 94t-179.5 58t-295 22.5q180 2 312.5 22.5t224.5 58.5t148.5 95.5t84.5 133.5q117 307 -651 307h-768l-106 -281h759q45 -12 35 -59l-4 -6q-14 -39 -74 -47h-759l-170 -441h770q43 -18 30 -49q-12 -33 -69 -53 h-770z" />
<glyph unicode="&#xe0;" horiz-adv-x="1800" d="M0 0l1241 1233l303 -1233h-721l162 424q0 49 -41 49q-39 0 -76 -53l-161 -420h-707zM1143 1794h510l-160 -416z" />
<glyph unicode="&#xe1;" horiz-adv-x="1800" d="M0 0l1241 1233l303 -1233h-721l162 424q0 49 -41 49q-39 0 -76 -53l-161 -420h-707zM1100 1378l160 416h507z" />
<glyph unicode="&#xe2;" horiz-adv-x="1800" d="M0 0l1241 1233l303 -1233h-721l162 424q0 49 -41 49q-39 0 -76 -53l-161 -420h-707zM786 1384l670 410l354 -410h-1024z" />
<glyph unicode="&#xe3;" horiz-adv-x="1800" d="M0 0l1241 1233l303 -1233h-721l162 424q0 49 -41 49q-39 0 -76 -53l-161 -420h-707zM915 1389l158 409l434 -205l78 205h256l-158 -409h-768z" />
<glyph unicode="&#xe4;" horiz-adv-x="1800" d="M0 0l1241 1233l303 -1233h-721l162 424q0 49 -41 49q-39 0 -76 -53l-161 -420h-707zM797 1513.5q-8 36.5 8 75.5q14 37 51 74t84 66.5t99.5 47t99.5 17.5q49 0 89 -17.5t64.5 -47t31.5 -66.5t-7 -74q-16 -39 -52 -75.5t-82 -65.5t-99.5 -46.5t-102.5 -17.5 q-47 0 -86 17.5t-64.5 46.5t-33.5 65.5zM1436 1513.5q-8 36.5 8 75.5q14 37 51 74t84 66.5t99.5 47t99.5 17.5q49 0 89 -17.5t64.5 -47t31.5 -66.5t-7 -74q-16 -39 -52 -75.5t-82 -65.5t-99.5 -46.5t-102.5 -17.5q-47 0 -86 17.5t-64.5 46.5t-33.5 65.5z" />
<glyph unicode="&#xe5;" horiz-adv-x="1800" d="M0 0l1241 1233l303 -1233h-721l162 424q0 49 -41 49q-39 0 -76 -53l-161 -420h-707zM1114 1513.5q-8 36.5 8 75.5q14 37 51 74t84.5 66.5t99.5 47t99 17.5q49 0 89 -17.5t64.5 -47t32 -66.5t-7.5 -74q-16 -39 -52 -75.5t-82 -65.5t-99 -46.5t-103 -17.5q-47 0 -85.5 17.5 t-64.5 46.5t-34 65.5z" />
<glyph unicode="&#xe6;" horiz-adv-x="2926" d="M0 0h707l161 420q37 53 76 53q41 0 41 -49l-162 -424h1848l143 373h-1049q-51 16 -39 47q12 33 76 51h662l135 348h-668q-53 20 -38.5 52t79.5 57h287l115 301h-768l-222 -578l-143 582z" />
<glyph unicode="&#xe7;" horiz-adv-x="1794" d="M198 385.5q7 -111.5 72.5 -198.5t190.5 -139t309 -48h182l-561 -348h510l133 348h504l217 563h-739q-53 8 -43 45q12 39 74 56h745l217 565h-768q-188 0 -351 -51.5t-292 -136.5t-222 -196.5t-138 -230.5q-47 -117 -40 -228.5z" />
<glyph unicode="&#xe8;" d="M0 0l471 1229h768l-115 -301h-286q-66 -25 -80.5 -56.5t39.5 -52.5h667l-135 -348h-659q-66 -18 -78 -51q-12 -31 41 -47h1046l-143 -373h-1536zM1053 1798h510l-160 -416z" />
<glyph unicode="&#xe9;" d="M0 0l471 1229h768l-115 -301h-286q-66 -25 -80.5 -56.5t39.5 -52.5h667l-135 -348h-659q-66 -18 -78 -51q-12 -31 41 -47h1046l-143 -373h-1536zM1194 1382l160 416h508z" />
<glyph unicode="&#xea;" d="M0 0l471 1229h768l-115 -301h-286q-66 -25 -80.5 -56.5t39.5 -52.5h667l-135 -348h-659q-66 -18 -78 -51q-12 -31 41 -47h1046l-143 -373h-1536zM776 1384l670 410l354 -410h-1024z" />
<glyph unicode="&#xeb;" d="M0 0l471 1229h768l-115 -301h-286q-66 -25 -80.5 -56.5t39.5 -52.5h667l-135 -348h-659q-66 -18 -78 -51q-12 -31 41 -47h1046l-143 -373h-1536zM750 1513.5q-8 36.5 8 75.5q14 37 51 74t84 66.5t99 47t100 17.5q49 0 89 -17.5t64.5 -47t31.5 -66.5t-7 -74 q-16 -39 -52 -75.5t-82 -65.5t-99.5 -46.5t-102.5 -17.5q-47 0 -86 17.5t-64.5 46.5t-33.5 65.5zM1391 1513.5q-8 36.5 8 75.5q14 37 51 74t84 66.5t99.5 47t99.5 17.5q49 0 89 -17.5t64.5 -47t31.5 -66.5t-7 -74q-16 -39 -52 -75.5t-82 -65.5t-99.5 -46.5t-102.5 -17.5 q-47 0 -86 17.5t-64.5 46.5t-33.5 65.5z" />
<glyph unicode="&#xec;" horiz-adv-x="1026" d="M0 0h770l471 1229h-770zM791 1794l350 -416l159 416h-509z" />
<glyph unicode="&#xed;" horiz-adv-x="1026" d="M0 0h770l471 1229h-770zM700 1378l668 416h-508z" />
<glyph unicode="&#xee;" horiz-adv-x="1073" d="M61 0l471 1229h771l-472 -1229h-770zM473 1384l670 410l354 -410h-1024z" />
<glyph unicode="&#xef;" horiz-adv-x="1073" d="M61 0l471 1229h771l-472 -1229h-770zM473 1513.5q-8 36.5 8 75.5q14 37 51 74t84.5 66.5t99.5 47t99 17.5q49 0 89 -17.5t64.5 -47t32 -66.5t-7.5 -74q-16 -39 -52 -75.5t-82 -65.5t-99 -46.5t-103 -17.5q-47 0 -86 17.5t-64.5 46.5t-33.5 65.5zM1114 1513.5 q-8 36.5 8 75.5q14 37 51 74t84.5 66.5t99.5 47t99 17.5q49 0 89 -17.5t64.5 -47t32 -66.5t-7.5 -74q-16 -39 -52 -75.5t-82 -65.5t-99 -46.5t-103 -17.5q-47 0 -85.5 17.5t-64.5 46.5t-34 65.5z" />
<glyph unicode="&#xf0;" d="M119 307q-121 -307 649 -307q766 0 887 307l196 512l-356 410h-768l356 -410q-147 0 -251.5 -3t-169.5 -7q-133 -10 -232 -55q-47 -23 -87 -57.5t-77 -88t-72.5 -127t-74.5 -174.5zM819 295l101 260q31 31 67 31q35 0 53 -31l-100 -260q-41 -31 -70 -31q-37 0 -51 31z " />
<glyph unicode="&#xf1;" d="M0 0h410l159 416q49 37 78 37q31 0 53 -37l-159 -416h995l473 1233h-768l-237 -619l-533 615zM911 1389h768l158 409h-256l-78 -205l-434 205z" />
<glyph unicode="&#xf2;" d="M199.5 368.5q-15.5 112.5 36 246t152.5 246t234.5 194.5t292 128t324.5 46q168 0 292 -46t194.5 -127t84 -194t-37.5 -248q-51 -133 -151.5 -245.5t-235 -194.5t-293 -128t-324.5 -46t-289 46t-193.5 128t-86 194.5zM866 424q4 -47 39 -47q39 0 80 47l166 432 q-4 47 -37 47q-31 0 -82 -47zM1153 1794h510l-160 -416z" />
<glyph unicode="&#xf3;" d="M199.5 368.5q-15.5 112.5 36 246t152.5 246t234.5 194.5t292 128t324.5 46q168 0 292 -46t194.5 -127t84 -194t-37.5 -248q-51 -133 -151.5 -245.5t-235 -194.5t-293 -128t-324.5 -46t-289 46t-193.5 128t-86 194.5zM866 424q4 -47 39 -47q39 0 80 47l166 432 q-4 47 -37 47q-31 0 -82 -47zM1114 1378l160 416h510z" />
<glyph unicode="&#xf4;" d="M199.5 368.5q-15.5 112.5 36 246t152.5 246t234.5 194.5t292 128t324.5 46q168 0 292 -46t194.5 -127t84 -194t-37.5 -248q-51 -133 -151.5 -245.5t-235 -194.5t-293 -128t-324.5 -46t-289 46t-193.5 128t-86 194.5zM791 1384l669 410l355 -410h-1024zM866 424 q4 -47 39 -47q39 0 80 47l166 432q-4 47 -37 47q-31 0 -82 -47z" />
<glyph unicode="&#xf5;" d="M199.5 368.5q-15.5 112.5 36 246t152.5 246t234.5 194.5t292 128t324.5 46q168 0 292 -46t194.5 -127t84 -194t-37.5 -248q-51 -133 -151.5 -245.5t-235 -194.5t-293 -128t-324.5 -46t-289 46t-193.5 128t-86 194.5zM866 424q4 -47 39 -47q39 0 80 47l166 432 q-4 47 -37 47q-31 0 -82 -47zM915 1389l158 409l434 -205l78 205h256l-158 -409h-768z" />
<glyph unicode="&#xf6;" d="M199.5 368.5q-15.5 112.5 36 246t152.5 246t234.5 194.5t292 128t324.5 46q168 0 292 -46t194.5 -127t84 -194t-37.5 -248q-51 -133 -151.5 -245.5t-235 -194.5t-293 -128t-324.5 -46t-289 46t-193.5 128t-86 194.5zM801 1513.5q-8 36.5 8 75.5q14 37 51 74t84 66.5 t99.5 47t99.5 17.5q49 0 89 -17.5t64.5 -47t31.5 -66.5t-7 -74q-16 -39 -52 -75.5t-82 -65.5t-99.5 -46.5t-102.5 -17.5q-47 0 -86 17.5t-64.5 46.5t-33.5 65.5zM866 424q4 -47 39 -47q39 0 80 47l166 432q-4 47 -37 47q-31 0 -82 -47zM1442 1513.5q-8 36.5 8 75.5 q14 37 51 74t84 66.5t99.5 47t99.5 17.5q49 0 89 -17.5t64.5 -47t31.5 -66.5t-7 -74q-16 -39 -52 -75.5t-82 -65.5t-99.5 -46.5t-102.5 -17.5q-47 0 -86 17.5t-64.5 46.5t-33.5 65.5z" />
<glyph unicode="&#xf7;" horiz-adv-x="1845" d="M184 479l133 338h1586l-129 -338h-1590zM616 131q-9 37 5 74q14 39 51 75.5t85 65.5t100 46.5t99 17.5q49 0 88 -17.5t64 -46.5t32 -65.5t-7 -75.5q-14 -37 -49 -74t-82.5 -66.5t-100.5 -47t-102 -17.5q-47 0 -86 17.5t-63.5 47t-33.5 66.5zM959 1026q-8 37 6 74 q14 39 51 75.5t85 65.5t100 46.5t99 17.5q49 0 88 -17.5t64 -46.5t32 -65.5t-7 -75.5q-14 -37 -50 -74t-82.5 -66.5t-99.5 -47t-102 -17.5q-47 0 -86 17.5t-64.5 47t-33.5 66.5z" />
<glyph unicode="&#xf8;" d="M199.5 368.5q15.5 -112.5 86 -194.5t193.5 -128t289 -46q168 0 326.5 46t292 127t234 193.5t151.5 247.5q51 133 36.5 246t-86 195t-194.5 128t-289 46t-324.5 -46t-292 -128t-234.5 -194.5t-152.5 -246t-36 -246zM571 819h1024l-749 -614z" />
<glyph unicode="&#xf9;" d="M200 368.5q15 -112.5 85.5 -194.5t193.5 -128t289 -46t324.5 46t293 128t234.5 194.5t152 245.5l237 617h-733l-260 -678q-49 -37 -72 -37q-27 0 -45 37l258 676h-686l-235 -615q-51 -133 -36 -245.5zM1143 1794l350 -416l160 416h-510z" />
<glyph unicode="&#xfa;" d="M200 368.5q15 -112.5 85.5 -194.5t193.5 -128t289 -46t324.5 46t293 128t234.5 194.5t152 245.5l237 617h-733l-260 -678q-49 -37 -72 -37q-27 0 -45 37l258 676h-686l-235 -615q-51 -133 -36 -245.5zM1100 1378l667 416h-507z" />
<glyph unicode="&#xfb;" d="M200 368.5q15 -112.5 85.5 -194.5t193.5 -128t289 -46t324.5 46t293 128t234.5 194.5t152 245.5l237 617h-733l-260 -678q-49 -37 -72 -37q-27 0 -45 37l258 676h-686l-235 -615q-51 -133 -36 -245.5zM776 1384h1024l-354 410z" />
<glyph unicode="&#xfc;" d="M200 368.5q15 -112.5 85.5 -194.5t193.5 -128t289 -46t324.5 46t293 128t234.5 194.5t152 245.5l237 617h-733l-260 -678q-49 -37 -72 -37q-27 0 -45 37l258 676h-686l-235 -615q-51 -133 -36 -245.5zM797 1513.5q8 -36.5 33.5 -65.5t64.5 -46.5t86 -17.5 q49 0 102.5 17.5t99.5 46.5t81.5 65.5t52.5 75.5q14 37 7 74t-31.5 66.5t-64.5 47t-89 17.5q-47 0 -99.5 -17.5t-99.5 -47t-84 -66.5t-51 -74q-16 -39 -8 -75.5zM1436 1513.5q8 -36.5 33.5 -65.5t64.5 -46.5t86 -17.5q49 0 102.5 17.5t99.5 46.5t81.5 65.5t52.5 75.5 q14 37 7 74t-31.5 66.5t-64.5 47t-89 17.5q-47 0 -99.5 -17.5t-99.5 -47t-84 -66.5t-51 -74q-16 -39 -8 -75.5z" />
<glyph unicode="&#xfd;" d="M0 0h768l1241 1233h-723l-168 -440q-59 -51 -92 -52q-35 0 -35 52l166 436h-686l199 -819h-512zM1100 1378l667 416h-507z" />
<glyph unicode="&#xfe;" horiz-adv-x="1628" d="M0 0h768l84 217q186 0 317 33t218.5 87t139.5 127t83 152q29 78 33 153t-40 133.5t-146.5 94t-282.5 35.5l77 203h-778l-209 -547h762q66 -12 49 -53q-14 -39 -90 -51h-760z" />
<glyph unicode="&#xff;" d="M0 0h768l1241 1233h-723l-168 -440q-59 -51 -92 -52q-35 0 -35 52l166 436h-686l199 -819h-512zM797 1513.5q8 -36.5 33.5 -65.5t64.5 -46.5t86 -17.5q49 0 102.5 17.5t99.5 46.5t81.5 65.5t52.5 75.5q14 37 7 74t-31.5 66.5t-64.5 47t-89 17.5q-47 0 -99.5 -17.5 t-99.5 -47t-84 -66.5t-51 -74q-16 -39 -8 -75.5zM1436 1513.5q8 -36.5 33.5 -65.5t64.5 -46.5t86 -17.5q49 0 102.5 17.5t99.5 46.5t81.5 65.5t52.5 75.5q14 37 7 74t-31.5 66.5t-64.5 47t-89 17.5q-47 0 -99.5 -17.5t-99.5 -47t-84 -66.5t-51 -74q-16 -39 -8 -75.5z" />
<glyph unicode="&#x152;" horiz-adv-x="2928" d="M219 297q43 -141 185.5 -219t367.5 -78h1901l163 428h-387l60 152h-2286q-51 -139 -4 -283zM274 688h2286l49 127h-393l158 412h-1131h-14q-104 0 -207.5 -19.5t-203 -58.5t-190.5 -94.5t-169 -124.5q-145 -135 -180 -234z" />
<glyph unicode="&#x153;" horiz-adv-x="2963" d="M198 385.5q7 -111.5 72.5 -198.5t190.5 -139t309 -48h1937l144 373h-1047q-53 16 -41 47q12 33 78 51h662l135 348h-670q-53 20 -38.5 52t79.5 57h287l114 301h-1169q-188 0 -351 -51.5t-292 -136.5t-222 -196.5t-138 -230.5q-47 -117 -40 -228.5zM973 608q12 39 74 56 h378l-36 -101h-373q-53 8 -43 45z" />
<glyph unicode="&#x178;" horiz-adv-x="1830" d="M383 0h766l223 580h-766zM473 1233l131 -545h877l567 545h-1575zM797 1513.5q8 -36.5 33.5 -65.5t64.5 -46.5t86 -17.5q49 0 102.5 17.5t99.5 46.5t81.5 65.5t52.5 75.5q14 37 7 74t-31.5 66.5t-64.5 47t-89 17.5q-47 0 -99.5 -17.5t-99.5 -47t-84 -66.5t-51 -74 q-16 -39 -8 -75.5zM1436 1513.5q8 -36.5 33.5 -65.5t64.5 -46.5t86 -17.5q49 0 102.5 17.5t99.5 46.5t81.5 65.5t52.5 75.5q14 37 7 74t-31.5 66.5t-64.5 47t-89 17.5q-47 0 -99.5 -17.5t-99.5 -47t-84 -66.5t-51 -74q-16 -39 -8 -75.5z" />
<glyph unicode="&#x2c6;" horiz-adv-x="1280" d="M315 819h1024l-356 410z" />
<glyph unicode="&#x2dc;" horiz-adv-x="1024" d="M315 819q53 -2 99 -2h88h149h213h127h47h23q12 0 22 2l156 410h-256l-78 -205l-434 205z" />
<glyph unicode="&#x2000;" horiz-adv-x="903" />
<glyph unicode="&#x2001;" horiz-adv-x="1806" />
<glyph unicode="&#x2002;" horiz-adv-x="903" />
<glyph unicode="&#x2003;" horiz-adv-x="1806" />
<glyph unicode="&#x2004;" horiz-adv-x="602" />
<glyph unicode="&#x2005;" horiz-adv-x="451" />
<glyph unicode="&#x2006;" horiz-adv-x="301" />
<glyph unicode="&#x2007;" horiz-adv-x="301" />
<glyph unicode="&#x2008;" horiz-adv-x="225" />
<glyph unicode="&#x2009;" horiz-adv-x="361" />
<glyph unicode="&#x200a;" horiz-adv-x="100" />
<glyph unicode="&#x2010;" horiz-adv-x="1536" d="M158 410h1280l157 409h-1280z" />
<glyph unicode="&#x2011;" horiz-adv-x="1536" d="M158 410h1280l157 409h-1280z" />
<glyph unicode="&#x2012;" horiz-adv-x="1536" d="M158 410h1280l157 409h-1280z" />
<glyph unicode="&#x2013;" horiz-adv-x="1536" d="M158 410h1280l157 409h-1280z" />
<glyph unicode="&#x2014;" horiz-adv-x="1845" d="M156 408l157 409h1590l-158 -409h-1589z" />
<glyph unicode="&#x2018;" horiz-adv-x="768" d="M385 948q-8 37 8 76l78 205h512l-78 -205q-16 -39 -52 -76t-83 -65.5t-99.5 -46t-99.5 -17.5q-49 0 -89 17.5t-64.5 46t-32.5 65.5z" />
<glyph unicode="&#x2019;" horiz-adv-x="768" d="M315 819h512l78 205q14 39 7 76t-31.5 65.5t-64.5 46t-89 17.5q-47 0 -99.5 -17.5t-99.5 -46t-83.5 -65.5t-51.5 -76z" />
<glyph unicode="&#x201a;" horiz-adv-x="776" d="M-63.5 -214q2.5 -26 17.5 -41t52 -15q49 0 129 27.5t161 68.5t144.5 88t79.5 86l84 221h-10q8 37 -1 71t-33.5 60.5t-62.5 42t-83 15.5q-47 0 -99.5 -17.5t-100.5 -46.5t-85 -65.5t-51 -75.5l-113 -293q-12 -35 -21.5 -67.5t-7 -58.5z" />
<glyph unicode="&#x201c;" horiz-adv-x="1536" d="M386 948q-9 37 7 76l78 205h512l-78 -205q-16 -39 -51 -76t-82 -65.5t-99 -46t-102 -17.5q-47 0 -86 17.5t-64.5 46t-34.5 65.5zM1153 948q-8 37 8 76l78 205h512l-78 -205q-16 -39 -52 -76t-83 -65.5t-99.5 -46t-99.5 -17.5q-49 0 -89 17.5t-64.5 46t-32.5 65.5z" />
<glyph unicode="&#x201d;" horiz-adv-x="1536" d="M315 819h512l78 205q14 39 7 76t-31.5 65.5t-64.5 46t-89 17.5q-47 0 -99.5 -17.5t-99.5 -46t-83.5 -65.5t-51.5 -76zM1083 819h512l78 205q14 39 6 76t-33.5 65.5t-64.5 46t-86 17.5q-49 0 -101.5 -17.5t-99.5 -46t-82.5 -65.5t-50.5 -76z" />
<glyph unicode="&#x201e;" horiz-adv-x="1458" d="M-63.5 -216q2.5 -26 17.5 -41t52 -15q49 0 129 27.5t161 68.5t144.5 88t79.5 86l84 221h-10q8 37 -2 71t-35 60.5t-62.5 42t-82.5 15.5q-47 0 -99.5 -17.5t-99.5 -46.5t-84 -65.5t-51 -75.5l-113 -293q-12 -35 -21.5 -67.5t-7 -58.5zM620.5 -214q2.5 -26 17.5 -41t50 -15 q49 0 130 27.5t161 68.5t143.5 88t79.5 86l84 221h-10q10 37 1 71t-33.5 60.5t-62.5 42t-83 15.5q-47 0 -100.5 -17.5t-100.5 -46.5t-84 -65.5t-51 -75.5l-113 -293q-12 -35 -21.5 -67.5t-7 -58.5z" />
<glyph unicode="&#x2022;" d="M199.5 368.5q-15.5 112.5 36 246t152.5 246t234.5 194.5t292 128t324.5 46q168 0 292 -46t194.5 -127t84 -194t-37.5 -248q-51 -133 -151.5 -245.5t-235 -194.5t-293 -128t-324.5 -46t-289 46t-193.5 128t-86 194.5z" />
<glyph unicode="&#x2026;" horiz-adv-x="2129" d="M73 131q-9 37 5 74q14 39 51 75.5t85 65.5t100.5 46.5t99.5 17.5q49 0 88 -17.5t63.5 -46.5t31.5 -65.5t-7 -75.5q-14 -37 -49 -74t-82 -66.5t-100.5 -47t-102.5 -17.5q-47 0 -86 17.5t-63.5 47t-33.5 66.5zM746 131q-8 37 6 74q14 39 51 75.5t84 65.5t100 46.5t100 17.5 q49 0 88 -17.5t64 -46.5t32 -65.5t-7 -75.5q-14 -37 -50 -74t-83.5 -66.5t-99.5 -47t-101 -17.5q-47 0 -86 17.5t-64.5 47t-33.5 66.5zM1435 131q-9 37 5 74q14 39 51 75.5t85 65.5t100.5 46.5t99.5 17.5q49 0 88 -17.5t63.5 -46.5t31.5 -65.5t-7 -75.5q-14 -37 -49 -74 t-82 -66.5t-100.5 -47t-102.5 -17.5q-47 0 -86 17.5t-63.5 47t-33.5 66.5z" />
<glyph unicode="&#x202f;" horiz-adv-x="361" />
<glyph unicode="&#x2039;" horiz-adv-x="768" d="M233 610l670 410l-313 -819z" />
<glyph unicode="&#x203a;" horiz-adv-x="768" d="M78 201l667 409l-354 410z" />
<glyph unicode="&#x205f;" horiz-adv-x="451" />
<glyph unicode="&#x20ac;" horiz-adv-x="2007" d="M115 297l108 283h1751l-223 -580h-768q-225 0 -368.5 78t-188.5 219h-311zM264 686l109 285h342q135 111 311 178q209 80 428 80h758l-207 -541z" />
<glyph unicode="&#x2122;" horiz-adv-x="1878" d="M367 954l104 273h770l-104 -273h-770zM420 610l112 289h381l-112 -289h-381zM1087 610l113 289h768l-113 -289h-768zM1221 954l104 273l285 -266l483 264l-104 -271h-768z" />
<glyph unicode="&#x25fc;" horiz-adv-x="1228" d="M0 0v1229h1229v-1229h-1229z" />
</font>
</defs>
</svg>
